<svg width="16" height="16" viewBox="0 0 16 16" fill="none" xmlns="http://www.w3.org/2000/svg">
<path d="M11.333 11.3267C10.433 11.3267 9.86634 11.6067 9.36634 11.86C8.93301 12.08 8.57967 12.26 7.99967 12.26C7.39967 12.26 7.06634 12.0933 6.63301 11.86C6.13301 11.6067 5.58634 11.3267 4.66634 11.3267C3.74634 11.3267 3.19967 11.6067 2.69967 11.86C2.41301 12.0067 2.15967 12.1333 1.85301 12.2067C1.55301 12.2733 1.33301 12.5133 1.33301 12.8133V12.88C1.33301 13.28 1.70634 13.5667 2.09301 13.4867C2.58634 13.3867 2.95967 13.2 3.29967 13.0267C3.73301 12.8067 4.07967 12.6267 4.66634 12.6267C5.25301 12.6267 5.59967 12.7933 6.03301 13.0267C6.53301 13.28 7.07967 13.56 7.99967 13.56C8.91967 13.56 9.46634 13.28 9.96634 13.0267C10.3997 12.8067 10.753 12.6267 11.333 12.6267C11.933 12.6267 12.2663 12.7933 12.6997 13.0267C13.0463 13.2 13.4197 13.3933 13.9197 13.4933C14.0097 13.5109 14.1026 13.5085 14.1916 13.4863C14.2806 13.464 14.3637 13.4225 14.4349 13.3646C14.5061 13.3068 14.5638 13.234 14.6038 13.1514C14.6437 13.0688 14.6651 12.9784 14.6663 12.8867V12.8267C14.6663 12.52 14.4397 12.28 14.1397 12.2133C13.833 12.1467 13.5863 12.02 13.2997 11.8667C12.7997 11.6067 12.233 11.3267 11.333 11.3267ZM11.333 8.36C10.433 8.36 9.86634 8.64667 9.36634 8.89334C8.93301 9.10667 8.57967 9.29333 7.99967 9.29333C7.39967 9.29333 7.06634 9.12667 6.63301 8.89334C6.13301 8.64 5.58634 8.36 4.66634 8.36C3.74634 8.36 3.19967 8.64667 2.69967 8.89334C2.41301 9.03334 2.15967 9.16667 1.84634 9.24C1.55301 9.30667 1.33301 9.54667 1.33301 9.84667V9.91334C1.33305 10.0055 1.35362 10.0965 1.39324 10.1797C1.43286 10.2628 1.49052 10.3362 1.56204 10.3943C1.63356 10.4524 1.71712 10.4938 1.80667 10.5156C1.89621 10.5373 1.98947 10.5388 2.07967 10.52C2.57967 10.42 2.95301 10.2267 3.29967 10.06C3.73301 9.82667 4.06634 9.66 4.66634 9.66C5.26634 9.66 5.59967 9.82667 6.03301 10.06C6.53301 10.3133 7.07967 10.5933 7.99967 10.5933C8.91967 10.5933 9.46634 10.3067 9.96634 10.06C10.3997 9.82667 10.733 9.66 11.333 9.66C11.933 9.66 12.2663 9.82667 12.6997 10.06C13.0463 10.2333 13.4197 10.4267 13.9197 10.5267C14.0103 10.5443 14.1037 10.5418 14.1932 10.5192C14.2827 10.4966 14.3661 10.4544 14.4374 10.3958C14.5088 10.3372 14.5663 10.2636 14.6059 10.1802C14.6454 10.0968 14.6661 10.0057 14.6663 9.91334V9.85334C14.6663 9.54667 14.4397 9.30667 14.1397 9.24C13.833 9.17334 13.5863 9.04667 13.2997 8.89334C12.7997 8.64 12.233 8.36 11.333 8.36ZM13.2997 2.97334C12.7997 2.72 12.2463 2.44 11.333 2.44C10.4197 2.44 9.86634 2.72 9.36634 2.97334C8.93301 3.18667 8.57967 3.37334 7.99967 3.37334C7.39967 3.37334 7.06634 3.20667 6.63301 2.97334C6.13301 2.72667 5.58634 2.44 4.66634 2.44C3.74634 2.44 3.19967 2.72 2.69967 2.97334C2.41301 3.12 2.15967 3.24667 1.85301 3.32C1.55301 3.38667 1.33301 3.62667 1.33301 3.92667V3.97334C1.33301 4.37334 1.69301 4.66667 2.07967 4.58667C2.57967 4.48667 2.95301 4.29334 3.29967 4.12667C3.73301 3.90667 4.07967 3.72667 4.66634 3.72667C5.25301 3.72667 5.59967 3.89334 6.03301 4.12667C6.53301 4.38 7.07967 4.66 7.99967 4.66C8.91967 4.66 9.46634 4.37334 9.96634 4.12667C10.3997 3.91334 10.753 3.72667 11.333 3.72667C11.933 3.72667 12.2663 3.89334 12.6997 4.12667C13.0463 4.3 13.4197 4.49334 13.9197 4.59334C14.0103 4.61101 14.1037 4.60845 14.1932 4.58584C14.2827 4.56322 14.3661 4.52111 14.4374 4.46251C14.5088 4.40391 14.5663 4.33027 14.6059 4.24686C14.6454 4.16345 14.6661 4.07232 14.6663 3.98V3.92C14.6663 3.61334 14.4397 3.37334 14.1397 3.30667C13.833 3.24 13.5863 3.12 13.2997 2.97334ZM11.333 5.39334C10.433 5.39334 9.86634 5.68 9.36634 5.92667C8.93301 6.16 8.59967 6.32667 7.99967 6.32667C7.39967 6.32667 7.06634 6.16 6.63301 5.92667C6.13301 5.67334 5.58634 5.39334 4.66634 5.39334C3.74634 5.39334 3.19967 5.68 2.69967 5.92667C2.41301 6.08 2.16634 6.20667 1.85967 6.27334C1.55967 6.34 1.33301 6.58 1.33301 6.88667V6.94667C1.33305 7.03881 1.35362 7.12979 1.39324 7.21299C1.43286 7.29618 1.49052 7.3695 1.56204 7.4276C1.63356 7.48571 1.71712 7.52714 1.80667 7.54889C1.89621 7.57064 1.98947 7.57216 2.07967 7.55334C2.57967 7.45334 2.95301 7.26 3.29967 7.09334C3.73301 6.88 4.08634 6.69334 4.66634 6.69334C5.24634 6.69334 5.59967 6.86 6.03301 7.09334C6.53301 7.34667 7.07967 7.62667 7.99967 7.62667C8.91967 7.62667 9.46634 7.34 9.96634 7.09334C10.3997 6.88 10.753 6.69334 11.333 6.69334C11.933 6.69334 12.2663 6.86 12.6997 7.09334C13.0463 7.26667 13.4197 7.46 13.9197 7.56C14.0097 7.57758 14.1026 7.57517 14.1916 7.55293C14.2806 7.53069 14.3637 7.48917 14.4349 7.43131C14.5061 7.37344 14.5638 7.30064 14.6038 7.21805C14.6437 7.13546 14.6651 7.04509 14.6663 6.95334V6.89334C14.6663 6.58667 14.4397 6.34667 14.1397 6.28C13.833 6.21334 13.5863 6.08667 13.2997 5.93334C12.7997 5.67334 12.233 5.39334 11.333 5.39334Z" fill="url(#paint0_linear_34_627)"/>
<defs>
<linearGradient id="paint0_linear_34_627" x1="7.99967" y1="2.44" x2="7.99967" y2="13.56" gradientUnits="userSpaceOnUse">
<stop stop-color="#FFBF00"/>
<stop offset="1" stop-color="#F2A50C"/>
</linearGradient>
</defs>
</svg>
