<svg width="16" height="16" viewBox="0 0 16 16" fill="none" xmlns="http://www.w3.org/2000/svg">
<path d="M12.6667 4.66669H12.12L10.9867 1.54669C10.8928 1.28942 10.7224 1.06712 10.4983 0.909765C10.2742 0.752408 10.0072 0.667568 9.73333 0.666687H8.66667C8.3 0.666687 8 0.966687 8 1.33335C8 1.70002 8.3 2.00002 8.66667 2.00002H9.73333L10.7067 4.66669H7.5L7.26 4.00002H7.32C7.68667 4.00002 7.98667 3.70002 7.98667 3.33335C7.98667 2.96669 7.68667 2.66669 7.32 2.66669H5.33333C4.96667 2.66669 4.66667 2.96669 4.66667 3.33335C4.66667 3.70002 4.96667 4.00002 5.33333 4.00002H5.83333L7.04667 7.33335H6.6C6.30667 5.84669 5.06 4.74669 3.5 4.67335C1.63333 4.58002 0 6.13335 0 8.00002C0 9.86669 1.46667 11.3334 3.33333 11.3334C4.97333 11.3334 6.3 10.2067 6.6 8.66669H9.4C9.69333 10.1534 10.94 11.2534 12.5 11.3267C14.3667 11.4134 16 9.86669 16 7.99335C16 6.13335 14.5333 4.66669 12.6667 4.66669ZM4 8.66669H5.21333C4.93333 9.48669 4.14667 10.0534 3.2 9.99335C2.20667 9.93335 1.38 9.09335 1.33333 8.09335C1.28667 6.92669 2.18 6.00002 3.33333 6.00002C4.22 6.00002 4.94667 6.55335 5.21333 7.33335H4C3.63333 7.33335 3.33333 7.63335 3.33333 8.00002C3.33333 8.36669 3.63333 8.66669 4 8.66669ZM9.4 7.33335H8.46667L7.98 6.00002H10C9.70667 6.38669 9.49333 6.83335 9.4 7.33335ZM12.5867 10C11.56 9.96002 10.6933 9.08669 10.6667 8.05335C10.6533 7.41335 10.9267 6.85335 11.3667 6.48002L11.78 7.61335C11.9067 7.96002 12.2867 8.14002 12.6333 8.01335C12.98 7.88669 13.16 7.50669 13.0333 7.16002L12.6133 6.00669L12.62 6.00002C12.8873 5.99091 13.1537 6.03605 13.403 6.13274C13.6524 6.22942 13.8795 6.37564 14.0708 6.56256C14.2621 6.74948 14.4135 6.97322 14.5159 7.22028C14.6183 7.46734 14.6696 7.73259 14.6667 8.00002C14.6667 9.14669 13.7467 10.04 12.5867 10ZM7.33333 13.3334H4.66667L8.66667 15.3334V14H11.3333L7.33333 12V13.3334Z" fill="url(#paint0_linear_34_623)"/>
<defs>
<linearGradient id="paint0_linear_34_623" x1="8" y1="0.666687" x2="8" y2="15.3334" gradientUnits="userSpaceOnUse">
<stop stop-color="#FFBF00"/>
<stop offset="1" stop-color="#F2A50C"/>
</linearGradient>
</defs>
</svg>
