<svg width="16" height="16" viewBox="0 0 16 16" fill="none" xmlns="http://www.w3.org/2000/svg">
<path d="M8.00033 5.33335C6.52699 5.33335 5.33366 6.52669 5.33366 8.00002C5.33366 9.47335 6.52699 10.6667 8.00033 10.6667C9.47366 10.6667 10.667 9.47335 10.667 8.00002C10.667 6.52669 9.47366 5.33335 8.00033 5.33335ZM13.9603 7.33335C13.8093 5.98143 13.2031 4.72105 12.2412 3.75915C11.2793 2.79725 10.0189 2.19103 8.66699 2.04002V1.33335C8.66699 0.966687 8.36699 0.666687 8.00033 0.666687C7.63366 0.666687 7.33366 0.966687 7.33366 1.33335V2.04002C5.98174 2.19103 4.72135 2.79725 3.75945 3.75915C2.79756 4.72105 2.19133 5.98143 2.04033 7.33335H1.33366C0.966992 7.33335 0.666992 7.63335 0.666992 8.00002C0.666992 8.36669 0.966992 8.66669 1.33366 8.66669H2.04033C2.19133 10.0186 2.79756 11.279 3.75945 12.2409C4.72135 13.2028 5.98174 13.809 7.33366 13.96V14.6667C7.33366 15.0334 7.63366 15.3334 8.00033 15.3334C8.36699 15.3334 8.66699 15.0334 8.66699 14.6667V13.96C10.0189 13.809 11.2793 13.2028 12.2412 12.2409C13.2031 11.279 13.8093 10.0186 13.9603 8.66669H14.667C15.0337 8.66669 15.3337 8.36669 15.3337 8.00002C15.3337 7.63335 15.0337 7.33335 14.667 7.33335H13.9603ZM8.00033 12.6667C5.42033 12.6667 3.33366 10.58 3.33366 8.00002C3.33366 5.42002 5.42033 3.33335 8.00033 3.33335C10.5803 3.33335 12.667 5.42002 12.667 8.00002C12.667 10.58 10.5803 12.6667 8.00033 12.6667Z" fill="url(#paint0_linear_34_637)"/>
<defs>
<linearGradient id="paint0_linear_34_637" x1="8.00033" y1="0.666687" x2="8.00033" y2="15.3334" gradientUnits="userSpaceOnUse">
<stop stop-color="#FFBF00"/>
<stop offset="1" stop-color="#F2A50C"/>
</linearGradient>
</defs>
</svg>
